<svg id="Layer_1" enable-background="new 0 0 480.001 480.001" height="512" viewBox="0 0 480.001 480.001" width="512" xmlns="http://www.w3.org/2000/svg"><path d="m286 416.321c-4.41-2.21-1.85-1.07-49.51-17.56-19.946-6.906-35.579-25.242-36.479-50.196 35.812-14.906 60.989-50.231 60.989-91.434v-3.13c13.81 0 25-11.19 25-25v-59.09c0-33.45-21.51-63.09-53.31-73.5-27.416-8.979-47.302-18.713-67.877-38.619-1.845-1.785-4.429-2.558-6.956-2.104-18.369 3.3-76.256 17.102-105.127 68.833-9.11 16.33-13.07 32.37-14.73 45.39v59.55c0 13.244 10.715 24.54 25 24.54v3.13c0 41.201 25.175 76.525 60.984 91.432-.401 23.18-15.395 42.902-36.474 50.198-46.99 16.26-44.83 15.21-49.51 17.56-18.2 9.05-30 27.72-30 48.45 0 3.99 3.24 7.23 7.23 7.23h293.54c3.99 0 7.23-3.24 7.23-7.23 0-20.73-11.8-39.4-30-48.45z" fill="#ffebd2"/><path d="m286 169.911v59.09c0 13.81-11.19 25-25 25v-61.77c0-26.51-21.49-48-48-48h-102c-26.51 0-48 21.49-48 48 0 66.53.111 61.77-.2 61.77-13.7 0-24.8-10.99-24.8-24.54v-59.55c1.66-13.02 5.62-29.06 14.73-45.39 28.871-51.73 86.758-65.533 105.127-68.833 2.527-.454 5.111.319 6.956 2.104 20.572 19.903 40.452 29.637 67.877 38.619 31.8 10.41 53.31 40.05 53.31 73.5z" fill="#585966"/><path d="m275 412.031v59.97h-226v-59.97c41.342-14.246 41.23-13.973 46.16-16.59 11.56 26.15 37.72 43.56 66.84 43.56s55.28-17.41 66.84-43.56c4.904 2.603 3.986 2.057 46.16 16.59z" fill="#cbe3fa"/><circle cx="383.5" cy="383.501" fill="#585966" r="88.5"/><circle cx="383.5" cy="383.501" fill="#cbe3fa" r="32"/><path d="m200.02 348.931c.01.63.04 1.26.08 1.88-.04-.76-.06-1.39-.08-1.88z" fill="#ffdfba"/><path d="m387.097 318.392c-39.198 12.63-65.703 53.688-61.804 94.686 1.289 13.553-17.374 18.464-22.852 6-25.699-58.471 17.754-124.108 81.103-124.078 13.722.007 16.615 19.183 3.553 23.392z" fill="#6e6f80"/><path d="m384.775 364.021c-10.695 4.797-18.233 15.502-19.239 27.173-.613 7.119-10.63 8.373-12.687 1.53-6.022-20.037 8.5-39.872 28.543-41.156 8.032-.514 9.852 9.551 3.383 12.453z" fill="#eef7ff"/><circle cx="406" cy="178.001" fill="#ff6d7a" r="32"/><path d="m409.253 160.412c-10.221 6.4-16.228 18.522-15.128 30.597.734 8.053-9.655 11.805-14.31 5.194-14.447-20.521-.508-49.154 24.616-50.355 8.842-.422 11.541 10.358 4.822 14.564z" fill="#ff8c95"/><path d="m49 412.031v26.182c0 2.334-1.044 4.522-2.79 6.07-6.841 6.067-12.051 13.791-15.109 22.434-1.131 3.197-4.219 5.284-7.61 5.284h-8.261c-3.967 0-7.225-3.201-7.23-7.169-.026-23.602 15.156-43.9 36.39-51.201 0 0 .01-.01.03-.01.24-.09 1.96-.68 4.58-1.59z" fill="#fff3e4"/><path d="m103.122 409.167c3.23 4.382 1.403 10.618-3.741 12.403-31.505 10.93-35.192 11.94-39.176 13.707-5.273 2.339-11.205-1.554-11.205-7.323v-15.923c41.342-14.246 41.23-13.973 46.16-16.59 2.165 4.901 4.844 9.497 7.962 13.726z" fill="#eef7ff"/><path d="m173.753 65.808c4.956 4.113 3.26 12.086-2.934 13.849-42.708 12.15-79.21 38.456-95.299 80.254-7.78 8.53-12.52 19.87-12.52 32.32 0 66.53.111 61.77-.2 61.77-13.7 0-24.8-10.99-24.8-24.54v-59.55c1.66-13.02 5.62-29.06 14.73-45.39 28.87-51.73 86.757-65.533 105.127-68.833 2.52-.46 5.116.324 6.956 2.104 2.457 2.38 5.437 5.11 8.94 8.016z" fill="#6e6f80"/><path d="m63 190.001v81h-27.31c-11.98 0-21.69-9.71-21.69-21.69v-37.62c0-11.98 9.71-21.69 21.69-21.69z" fill="#cbe3fa"/><path d="m14 243.13v-31.44c0-11.979 9.711-21.69 21.69-21.69h27.31v10h-7.31c-11.979 0-21.69 9.711-21.69 21.69v21.44c0 13.247-20 13.136-20 0z" fill="#eef7ff"/><path d="m310 211.691v37.62c0 11.98-9.71 21.69-21.69 21.69h-27.31v-81h27.31c11.98 0 21.69 9.71 21.69 21.69z" fill="#cbe3fa"/><path d="m275 198.001v65c0 4.418-3.582 8-8 8h-6v-81h6c4.418 0 8 3.581 8 8z" fill="#eef7ff"/><path d="m147.181 325.328c15.763 8.109 6.51 32.054-10.621 27.496-42.77-11.381-73.518-50.215-73.541-95.633 0 0 .051-66.177.072-66.751.697-19.196 29.548-18.462 29.63.746.049 11.416.299 26.181.298 46.005-.002 40.227 23.133 72.175 54.162 88.137z" fill="#fff3e4"/><path d="m195.585 366.313c-21.299 7.719-45.588 7.818-67.249-.052-3.592-1.305-5.746-5.014-5.12-8.784.74-4.459.648-7.601.744-8.937 24.503 10.22 52.069 10.011 76 .05 0 3.032.249 6.023.737 8.947.63 3.769-1.52 7.475-5.112 8.776z" fill="#ffdfba"/><g><path d="m145 235.001v-14c0-4.418-3.582-8-8-8s-8 3.582-8 8v14c0 4.418 3.582 8 8 8s8-3.582 8-8z"/><path d="m195 235.001v-14c0-4.418-3.582-8-8-8s-8 3.582-8 8v14c0 4.418 3.582 8 8 8s8-3.582 8-8z"/><path d="m49 439.194c-4.418 0-8 3.582-8 8v24.806c0 4.418 3.582 8 8 8s8-3.582 8-8v-24.806c0-4.418-3.582-8-8-8z"/><path d="m275 439.194c-4.418 0-8 3.582-8 8v24.806c0 4.418 3.582 8 8 8s8-3.582 8-8v-24.806c0-4.418-3.582-8-8-8z"/><path d="m398 218.001c22.056 0 40-17.944 40-40v-70.71c9.66 6.973 20.845 11.669 32.712 13.605 4.359.712 8.472-2.246 9.184-6.607s-2.246-8.472-6.607-9.184c-14.464-2.361-27.659-9.904-37.155-21.241-4.785-5.714-14.134-2.318-14.134 5.137v89c0 13.234-10.767 24-24 24s-24-10.766-24-24 10.767-24 24-24c4.418 0 8-3.582 8-8s-3.582-8-8-8c-22.056 0-40 17.944-40 40s17.944 40 40 40z"/><path d="m440 305.275v-19.275c0-4.418-3.582-8-8-8s-8 3.582-8 8v74.789l-5.899 2.607c-7.031-12.171-20.044-19.895-34.601-19.895-22.056 0-40 17.944-40 40 0 32.898 36.937 50.854 62.815 32.859 3.627-2.522 4.523-7.508 2.001-11.135-2.522-3.628-7.507-4.523-11.136-2.001-15.667 10.895-37.681-.166-37.681-19.723 0-13.234 10.767-24 24-24 8.118 0 15.426 4.009 19.806 10.432l-17.54 7.75c-4.041 1.786-5.87 6.509-4.084 10.551 1.777 4.022 6.49 5.878 10.551 4.084l43-19c2.897-1.28 4.767-4.15 4.767-7.317v-39.847c15.234 14.986 24 35.508 24 57.347 0 44.388-36.112 80.5-80.5 80.5s-80.5-36.112-80.5-80.5c0-42.442 33.146-77.734 75.459-80.345 4.409-.272 7.764-4.068 7.491-8.478-.271-4.41-4.064-7.76-8.478-7.492-50.731 3.13-90.471 45.437-90.471 96.315 0 53.21 43.29 96.5 96.5 96.5s96.5-43.29 96.5-96.5c0-31.156-14.877-60.074-40-78.226z"/><path d="m130.822 359.514c60.212 18.344 123.153-19.283 135.926-80.513h21.559c16.373 0 29.693-13.321 29.693-29.694v-37.613c0-13.713-9.345-25.279-22-28.677v-49.017c0-73.888-60.112-134-134-134s-134 60.113-134 134v49.017c-12.655 3.398-22 14.965-22 28.677v37.613c0 16.373 13.32 29.694 29.693 29.694 4.418 0 8-3.582 8-8s-3.582-8-8-8c-7.551 0-13.693-6.143-13.693-13.694v-37.613c0-7.551 6.143-13.694 13.693-13.694h19.307s.008 60.664.014 60.818c.932 25.594 9.939 50.17 26.957 69.332 2.933 3.304 7.988 3.604 11.294.67 3.304-2.934 3.604-7.99.669-11.294-14.789-16.653-22.934-38.104-22.934-60.4v-64.892c0-22.056 17.941-40 39.994-40h102.008c22.055 0 39.998 17.942 39.998 39.997v64.895c0 64.835-66.253 108.894-125.936 84.054-5.179-2.151-10.972 1.598-11.074 7.24-.353 19.293-12.849 36.483-31.094 42.774l-43.106 14.863c-25.001 8.666-41.79 32.249-41.79 58.717v7.227c0 4.418 3.582 8 8 8s8-3.582 8-8v-7.227c0-19.678 12.499-37.209 31.103-43.624l43.01-14.83c21.101-7.276 36.482-25.381 40.709-46.806zm171.178-147.82v37.613c0 7.551-6.143 13.694-13.693 13.694h-19.307v-65h19.307c7.55 0 13.693 6.142 13.693 13.693zm-88.998-75.46h-102.008c-27.379 0-50.216 19.76-55.04 45.766h-9.954v-11.568c1.997-15.146 6.61-29.279 13.718-42.014 26.325-47.177 78.769-61.106 99.558-64.856 33.574 32.451 64.399 36.57 79.655 43.974 3.975 1.929 8.761.27 10.689-3.705s.271-8.761-3.705-10.69c-17.539-8.511-46.481-11.506-78.213-43.752-1.797-1.827-4.359-2.684-6.899-2.299-18.968 2.87-83.32 16.656-115.058 73.531-.415.743-.816 1.493-1.216 2.244 5.629-59.861 56.161-106.864 117.471-106.864 65.065 0 118 52.935 118 118v48h-11.953c-4.824-26.006-27.663-45.767-55.045-45.767z"/><path d="m257.149 397.417-18.047-6.223c-9.064-3.125-16.814-8.889-22.41-16.667-2.58-3.586-7.582-4.402-11.166-1.822-3.587 2.581-4.402 7.58-1.822 11.166 4.094 5.691 9.05 10.573 14.675 14.527-18.735 32.536-61.58 42.799-93.117 21.189-3.646-2.497-8.623-1.568-11.122 2.077-2.497 3.645-1.567 8.624 2.077 11.121 39.486 27.056 93.183 14.016 116.343-26.953 1.54.57-1.627-.535 19.375 6.709 4.161 1.435 8.725-.763 10.171-4.955 1.439-4.175-.779-8.729-4.957-10.169z"/></g></svg>